<svg width="261" height="36" viewBox="0 0 261 36" fill="none" xmlns="http://www.w3.org/2000/svg">
<path d="M65.4045 30.1464H59.8416V15.9891L53.549 26.32H52.9233L46.6307 15.9891V30.1464H41.0679V5.79718H46.6307L53.2362 16.6152L59.8416 5.79718H65.4045V30.1464Z" fill="white"/>
<path d="M78.2324 25.972C79.6579 25.972 80.8744 25.416 81.5702 24.6499L85.7425 27.0501C84.0392 29.4153 81.4662 30.6324 78.1635 30.6324C72.2178 30.6324 68.5332 26.6321 68.5332 21.4496C68.5332 16.2671 72.2877 12.2668 77.7816 12.2668C82.8577 12.2668 86.6122 16.1971 86.6122 21.4496C86.6122 22.1797 86.5422 22.8757 86.4033 23.5368H74.0611C74.7218 25.346 76.3202 25.972 78.2324 25.972ZM81.4312 19.6414C80.8754 17.6243 79.31 16.8932 77.7456 16.8932C75.7634 16.8932 74.4429 17.8673 73.9561 19.6414H81.4312Z" fill="white"/>
<path d="M107.228 5.79718V30.1464H102.013V28.5112C100.866 29.8333 99.1623 30.6334 96.8332 30.6334C92.279 30.6334 88.5234 26.6331 88.5234 21.4506C88.5234 16.2681 92.278 12.2678 96.8332 12.2678C99.1623 12.2678 100.867 13.0678 102.013 14.39V5.79718H107.228ZM102.013 21.4496C102.013 18.8404 100.275 17.2062 97.8758 17.2062C95.4768 17.2062 93.7384 18.8414 93.7384 21.4496C93.7384 24.0588 95.4768 25.693 97.8758 25.693C100.275 25.694 102.013 24.0588 102.013 21.4496Z" fill="white"/>
<path d="M110.531 8.09342C110.531 6.38926 111.957 4.96313 113.66 4.96313C115.363 4.96313 116.789 6.38926 116.789 8.09342C116.789 9.79757 115.363 11.2237 113.66 11.2237C111.957 11.2237 110.531 9.79757 110.531 8.09342ZM111.053 12.7538H116.268V30.1454H111.053V12.7538Z" fill="white"/>
<path d="M137.927 12.7538V30.1454H132.712V28.5112C131.565 29.8333 129.862 30.6334 127.532 30.6334C122.978 30.6334 119.223 26.6331 119.223 21.4506C119.223 16.2681 122.977 12.2678 127.532 12.2678C129.862 12.2678 131.566 13.0678 132.712 14.39V12.7538H137.927ZM132.712 21.4496C132.712 18.8404 130.974 17.2062 128.575 17.2062C126.176 17.2062 124.438 18.8414 124.438 21.4496C124.438 24.0588 126.176 25.693 128.575 25.693C130.974 25.693 132.712 24.0588 132.712 21.4496Z" fill="white"/>
<path d="M159.656 14.1449C159.656 18.7713 155.935 22.4927 151.138 22.4927H147.488V30.1454H141.925V5.79718H151.138C155.936 5.79718 159.656 9.51951 159.656 14.1449ZM154.094 14.1449C154.094 12.3708 152.843 11.0146 151.139 11.0146H147.489V17.2762H151.139C152.842 17.2762 154.094 15.9191 154.094 14.1449Z" fill="white"/>
<path d="M179.057 12.7538V30.1454H173.842V28.5112C172.694 29.8333 170.991 30.6334 168.662 30.6334C164.108 30.6334 160.352 26.6331 160.352 21.4506C160.352 16.2681 164.107 12.2678 168.662 12.2678C170.991 12.2678 172.695 13.0678 173.842 14.39V12.7538H179.057ZM173.842 21.4496C173.842 18.8404 172.104 17.2062 169.704 17.2062C167.305 17.2062 165.567 18.8414 165.567 21.4496C165.567 24.0588 167.305 25.693 169.704 25.693C172.104 25.693 173.842 24.0588 173.842 21.4496Z" fill="white"/>
<path d="M193.31 12.4058V18.3194C191.155 17.9713 188.095 18.8414 188.095 22.2847V30.1454H182.88V12.7539H188.095V15.8501C188.791 13.5189 191.12 12.4058 193.31 12.4058Z" fill="white"/>
<path d="M202.871 17.7632V23.9198C202.871 25.4159 204.157 25.5549 206.452 25.4159V30.1463C199.637 30.8424 197.655 28.7902 197.655 23.9198V17.7632H194.873V12.7538H197.655V9.44948L202.87 7.88434V12.7538H206.451V17.7622H202.871V17.7632Z" fill="white"/>
<path d="M226.443 19.4674V30.1464H221.228V20.2325C221.228 18.0763 219.873 17.0672 218.204 17.0672C216.291 17.0672 214.97 18.1803 214.97 20.6495V30.1454H209.755V12.7538H214.97V14.389C215.909 13.1019 217.647 12.2668 219.942 12.2668C223.454 12.2668 226.443 14.772 226.443 19.4674Z" fill="white"/>
<path d="M238.855 25.972C240.28 25.972 241.497 25.416 242.192 24.6499L246.365 27.0501C244.661 29.4153 242.088 30.6324 238.786 30.6324C232.84 30.6324 229.155 26.6321 229.155 21.4496C229.155 16.2671 232.91 12.2668 238.404 12.2668C243.48 12.2668 247.234 16.1971 247.234 21.4496C247.234 22.1797 247.164 22.8757 247.025 23.5368H234.683C235.343 25.346 236.942 25.972 238.855 25.972ZM242.053 19.6414C241.497 17.6243 239.932 16.8932 238.368 16.8932C236.386 16.8932 235.065 17.8673 234.578 19.6414H242.053Z" fill="white"/>
<path d="M260.618 12.4058V18.3194C258.463 17.9713 255.403 18.8414 255.403 22.2847V30.1454H250.188V12.7539H255.403V15.8501C256.099 13.5189 258.428 12.4058 260.618 12.4058Z" fill="white"/>
<path d="M31.9203 17.737C31.9203 20.781 30.3969 23.5476 27.8383 25.1427L13.0524 34.3643C11.698 35.2091 10.1584 35.6568 8.5989 35.6606C7.13386 35.6644 5.67627 35.2785 4.38519 34.5446C3.09287 33.8107 2.00558 32.7528 1.24262 31.4855C0.429945 30.135 0 28.5688 0 26.9573V8.70335C0 7.09938 0.426217 5.53955 1.23267 4.19409C1.98943 2.92806 3.06802 1.87136 4.35164 1.13495C5.63526 0.398537 7.08415 0.00637266 8.54298 6.77632e-05C10.095 -0.00623713 11.6309 0.42754 12.9853 1.25474L12.9915 1.25853L27.8122 10.3338L25.1456 14.8014L10.3286 5.7287C9.25873 5.07677 7.97138 5.05912 6.88409 5.68204C5.7968 6.30623 5.14691 7.43606 5.14691 8.70335V26.956C5.14691 28.2309 5.80177 29.3632 6.89776 29.9849C7.99375 30.6066 9.28731 30.5801 10.3584 29.913L25.1443 20.6915C26.1807 20.0459 26.7734 18.969 26.7734 17.7357C26.7734 17.7294 26.7734 17.7244 26.7734 17.7181C26.7672 16.4785 26.1645 15.4004 25.117 14.7598L24.989 14.6817C24.6286 14.4875 22.9474 13.7687 20.4398 15.611C16.0857 18.8088 10.766 22.2791 10.5424 22.4253L7.76138 18.0308C7.81481 17.9955 13.1866 14.4912 17.4227 11.3804C20.3379 9.24053 22.9412 9.02364 24.6125 9.21783C26.3087 9.4158 27.4481 10.0728 27.816 10.3124C30.3745 11.8949 31.9079 14.6514 31.9216 17.6941C31.9203 17.7093 31.9203 17.7231 31.9203 17.737Z" fill="white"/>
</svg>
